<svg width="146" height="141" viewBox="0 0 146 141" fill="none" xmlns="http://www.w3.org/2000/svg">
<g clip-path="url(#clip0_27_54)">
<path d="M53.2233 1.84588C58.8764 1.84588 63.9433 5.19921 66.1403 10.3923C66.8686 12.1089 67.2389 13.9363 67.2389 15.813C67.2389 18.7848 66.3131 21.6213 64.5666 24.021L63.9803 24.827L64.3382 25.7622L67.0537 32.8811L67.4055 33.7979L68.3621 34.0194C72.4723 34.9854 76.3295 36.9728 79.5141 39.7662L80.2238 40.3938L81.1495 40.1846C82.1555 39.957 83.1923 39.8401 84.2353 39.8401C85.8769 39.8401 87.4753 40.117 88.9874 40.6646C87.5741 41.366 86.2163 42.172 84.9265 43.0827L83.507 44.0856L84.4266 45.5623C85.1116 46.6637 85.7103 47.8081 86.2163 48.9894C85.2721 48.7741 84.3032 48.6695 83.3219 48.6695C81.6679 48.6695 80.0633 48.971 78.5636 49.5617C73.54 51.4998 70.1642 56.4099 70.1642 61.7875C70.1642 62.7289 70.2691 63.6703 70.4666 64.5871C70.7998 66.113 71.3985 67.5528 72.2378 68.8572C74.2991 72.069 77.6379 74.2225 81.3902 74.764C81.8716 74.8378 82.3653 74.8809 82.8714 74.8993C82.3344 75.5946 81.7605 76.2591 81.1495 76.8929C79.7609 78.3388 78.2119 79.6248 76.5147 80.7323C75.626 81.3168 75.2372 82.3874 75.5458 83.4027C75.7679 84.1472 76.3295 84.7071 77.0393 84.9532C81.3779 91.4753 88.1727 96.1822 95.8007 97.9051C98.0225 98.4157 100.324 98.668 102.639 98.668C103.367 98.668 104.077 98.6434 104.743 98.5942C120.771 97.5113 133.324 84.1041 133.324 68.0758C133.324 61.2153 131.102 54.7424 126.899 49.3463C127.263 49.3832 128.43 49.6847 130.843 51.8813L130.898 51.9305C133.719 54.5025 135.638 57.825 136.446 61.5414C137.422 66.0084 137.915 70.6108 137.915 75.2254C137.915 84.3687 136.021 93.1919 132.293 101.455C128.689 109.442 123.554 116.499 117.043 122.437L117 122.474C115.161 124.153 112.951 125.372 110.619 126.664C109.958 127.027 109.292 127.396 108.638 127.771C98.9235 133.352 83.8773 137.524 78.1748 138.293C78.1193 138.299 77.9527 138.33 77.6935 138.379C76.706 138.57 73.6943 139.148 71.6577 139.148C71.4355 139.148 71.238 139.142 71.0591 139.13C69.6211 139.019 68.3065 138.945 67.029 138.871C59.7775 138.465 54.0441 138.151 36.7762 130.946C34.9062 130.165 33.6842 128.276 33.746 126.245V126.165C33.9249 120.289 34.6655 109.559 37.6278 103.763L37.7019 103.621L37.7513 103.467C38.9794 99.4802 41.1641 95.7823 44.0771 92.7612C46.8975 90.8108 49.9339 89.1741 53.1061 87.9004C54.0935 87.5066 54.723 86.5653 54.7107 85.507C54.7045 84.4548 54.0565 83.5257 53.0567 83.1442C48.607 81.4153 44.7189 78.4865 41.8183 74.6717L40.8309 73.3734L39.4176 74.1917C38.3808 74.7886 37.1958 75.1085 35.9924 75.1085C35.6776 75.1085 35.3629 75.0901 35.0481 75.047C31.9254 74.6348 29.4567 72.0567 29.1728 68.9187C28.8458 65.2885 31.4069 62.0398 35.0049 61.5291L36.6651 61.2891L36.591 59.6155C36.5849 59.4494 36.5849 59.2833 36.5849 59.111V58.1204L35.7579 57.5728C35.7085 57.542 30.796 54.2871 27.488 51.4629L26.2722 50.4292L25.0688 51.4752C22.5199 53.6841 19.2614 54.8962 15.8855 54.8962C14.3056 54.8962 12.7504 54.6378 11.2692 54.121C5.65313 52.1643 1.87615 46.8605 1.87615 40.9291C1.87615 33.2257 8.16494 26.962 15.8855 26.962C16.3854 26.962 16.8853 26.9867 17.3667 27.042L19.1441 27.2389L19.4033 25.473C20.3969 18.6679 26.3586 13.5302 33.2707 13.5302C34.6285 13.5302 35.9677 13.721 37.239 14.1025L39.1399 14.6685L39.5719 12.7365C40.9913 6.42364 46.7432 1.83973 53.2418 1.83973M53.2233 7.22893e-06C45.6632 7.22893e-06 39.3374 5.2792 37.7451 12.3366C36.3195 11.912 34.8075 11.6844 33.2461 11.6844C25.2663 11.6844 18.6627 17.5543 17.5457 25.2085C16.9964 25.1469 16.4286 25.1162 15.8608 25.1162C7.09727 25.1162 0 32.192 0 40.9291C0 47.8327 4.4435 53.7087 10.6336 55.8684C12.269 56.4345 14.0279 56.7483 15.8608 56.7483C19.8353 56.7483 23.4765 55.29 26.2599 52.8719C29.6913 55.8007 34.7087 59.1171 34.7087 59.1171C34.7087 59.314 34.7087 59.5048 34.7149 59.7017C30.2467 60.3416 26.877 64.3656 27.3029 69.0848C27.6608 73.0719 30.796 76.3514 34.7766 76.8744C35.1777 76.9298 35.5727 76.9544 35.9677 76.9544C37.5538 76.9544 39.0411 76.5299 40.3248 75.7915C43.3921 79.8278 47.5517 82.9966 52.3655 84.867H52.384C52.9888 85.107 52.9888 85.95 52.3902 86.1899C49.002 87.5559 45.8051 89.291 42.849 91.3522C39.7077 94.5763 37.3193 98.5265 35.9615 102.932C32.8511 109.005 32.0673 119.883 31.8821 126.116V126.202C31.8019 129.008 33.4559 131.574 36.0479 132.657C56.6547 141.252 61.3327 140.219 70.8986 140.975C71.1331 140.994 71.38 141 71.6392 141C74.2559 141 78.1069 140.163 78.397 140.126C84.6364 139.283 99.7875 134.976 109.532 129.371C112.532 127.648 115.673 126.172 118.222 123.833C118.234 123.821 118.253 123.809 118.265 123.796C131.46 111.768 139.742 94.4594 139.742 75.2254C139.742 70.3893 139.217 65.6823 138.23 61.1476C137.341 57.0805 135.2 53.3826 132.12 50.5707C132.102 50.5523 132.083 50.54 132.065 50.5215C129.608 48.2819 127.967 47.5374 126.881 47.5066C126.85 47.5066 126.819 47.5066 126.788 47.5066C126.251 47.5066 125.85 47.685 125.56 47.9373C124.838 48.5649 124.788 49.6847 125.381 50.4354C129.189 55.3023 131.454 61.4245 131.454 68.0819C131.454 83.298 119.598 95.7454 104.601 96.7606C103.947 96.8098 103.287 96.8283 102.62 96.8283C100.417 96.8283 98.2632 96.5822 96.1957 96.1084C88.6171 94.3917 82.1678 89.6971 78.1625 83.3165C78.0823 83.2858 78.0267 83.2611 77.9527 83.2304C77.9095 83.2365 77.8662 83.2427 77.8231 83.2427C77.2614 83.2427 77.0886 82.5597 77.5206 82.2705C77.5206 82.2705 77.5268 82.2705 77.533 82.2644C79.3351 81.0892 80.9952 79.7171 82.4764 78.1665C84.081 76.4868 85.4758 74.6101 86.6175 72.5612C85.5683 72.8812 84.4575 73.0535 83.3095 73.0535C82.7479 73.0535 82.2048 73.0165 81.6618 72.9304C78.36 72.4566 75.5149 70.5431 73.7869 67.8543C73.071 66.7529 72.5464 65.5162 72.2625 64.1933C72.0959 63.418 72.0033 62.6058 72.0033 61.7813C72.0033 56.9944 74.9965 52.9027 79.2178 51.2783C80.483 50.7799 81.8654 50.5092 83.3095 50.5092C85.34 50.5092 87.2532 51.0445 88.901 51.9921C89.0182 51.9059 89.0306 51.8998 89.1478 51.8075C88.4443 49.2294 87.3766 46.799 85.9942 44.584C88.2283 43.0088 90.6907 41.7413 93.3321 40.8492C90.7586 39.0463 87.6235 37.9942 84.2353 37.9942C83.0318 37.9942 81.8592 38.1296 80.736 38.3818C77.3725 35.4284 73.2931 33.2749 68.7879 32.2228L66.0724 25.1039C67.9733 22.495 69.0965 19.2832 69.0965 15.8068C69.0965 13.6348 68.6522 11.5552 67.856 9.66622C65.4553 3.98094 59.8145 -0.0122986 53.2357 -0.0122986L53.2233 7.22893e-06Z" fill="black"/>
<path d="M83.3527 103.203L55.3154 105.535" stroke="black" stroke-width="2" stroke-miterlimit="10"/>
<path d="M69.3372 32.3151C69.3372 32.3151 63.0422 34.4255 57.1299 36.7698C49.65 39.7355 43.2069 44.8978 38.893 51.6721C37.276 54.2071 35.9492 56.9636 35.4678 59.6401" stroke="black" stroke-width="3" stroke-miterlimit="10"/>
<path d="M139.378 73.1211L131.244 71.2753" stroke="black" stroke-width="2" stroke-miterlimit="10"/>
<path d="M139.618 77.4159L130.374 75.5761" stroke="black" stroke-width="2" stroke-miterlimit="10"/>
<path d="M74.1199 40.6092C74.1199 40.6092 71.9043 40.4677 70.6083 41.2737C69.3123 42.0797 69.3369 43.6241 69.3369 43.6241" stroke="black" stroke-width="2" stroke-miterlimit="10"/>
<path d="M128.54 68.3096C123.665 68.3096 119.036 66.2053 115.833 62.532C115.216 61.8244 114.648 61.0553 114.155 60.2431C113.692 59.4802 113.445 58.6003 113.445 57.702C113.445 54.687 115.562 52.2013 118.45 51.6721C119.067 55.0993 121.431 57.9481 124.739 59.1848C124.924 59.2525 125.115 59.2894 125.307 59.2894C126.201 59.2894 126.93 58.5757 126.93 57.6958C126.93 53.6349 123.628 50.3431 119.567 50.3431H119.53C119.511 49.9431 119.518 49.5432 119.548 49.1187C119.906 44.6701 123.733 41.1814 128.25 41.1814C128.454 41.1814 128.645 41.1876 128.83 41.1999C128.689 41.9259 128.664 42.6643 128.756 43.4026C129.145 46.4791 131.663 48.9894 134.749 49.3771H134.823C134.916 49.3955 135.014 49.4017 135.107 49.4017C135.94 49.4017 136.712 48.9771 137.181 48.2696C137.643 47.5681 137.724 46.6883 137.39 45.9253C136.181 43.1503 133.731 41.0707 130.836 40.2892C132.287 39.4524 133.922 39.0094 135.625 39.0094C137.625 39.0094 139.538 39.6124 141.155 40.763C141.26 40.8368 141.352 40.9045 141.451 40.9722C141.766 41.2122 142.05 41.5014 142.284 41.8275C143.846 44.024 144.858 46.5898 145.216 49.2479C145.315 49.9801 145.364 50.743 145.364 51.5121C145.364 60.7661 137.81 68.2973 128.528 68.2973L128.54 68.3096Z" fill="#C1A45D"/>
<path d="M135.638 39.6309C137.508 39.6309 139.298 40.1969 140.822 41.2799C140.914 41.3414 141.001 41.4091 141.087 41.4706C141.353 41.6675 141.587 41.9136 141.785 42.1905C143.291 44.3071 144.266 46.7744 144.611 49.3402C144.71 50.0478 144.759 50.7799 144.759 51.5244C144.759 60.44 137.483 67.6943 128.541 67.6943C123.844 67.6943 119.382 65.6638 116.296 62.1259C115.704 61.4491 115.161 60.7046 114.679 59.917C114.272 59.2525 114.062 58.4834 114.056 57.6774C114.056 55.1916 115.679 53.0934 117.975 52.4166C118.796 55.77 121.215 58.5203 124.517 59.757C124.77 59.8493 125.035 59.8986 125.3 59.8986C126.535 59.8986 127.541 58.9079 127.541 57.6774C127.541 53.4811 124.27 50.0354 120.135 49.7401C120.135 49.5494 120.147 49.3586 120.166 49.1617C120.499 45.0701 123.98 41.8582 128.127 41.7905C128.072 42.3505 128.084 42.9104 128.152 43.4764C128.571 46.8236 131.318 49.5617 134.675 49.9862L134.749 49.9985C134.866 50.0108 134.99 50.017 135.107 50.017C136.15 50.017 137.119 49.4878 137.699 48.608C138.279 47.7281 138.372 46.639 137.958 45.6853C136.884 43.218 134.879 41.2614 132.453 40.2093C133.459 39.8278 134.533 39.6309 135.632 39.6309M135.638 38.4003C133.447 38.4003 131.41 39.0894 129.75 40.2646C129.701 40.3938 129.651 40.5292 129.608 40.6646C132.861 41.1322 135.57 43.2672 136.835 46.1714C137.372 47.4082 136.428 48.7864 135.119 48.7864C135.045 48.7864 134.977 48.7864 134.903 48.7741C134.885 48.7741 134.86 48.7741 134.842 48.7679C132.021 48.4111 129.744 46.1407 129.386 43.3288C129.269 42.3874 129.361 41.4952 129.614 40.6646C129.503 40.6461 129.392 40.6276 129.281 40.6215C128.948 40.5846 128.608 40.5661 128.269 40.5661C123.449 40.5661 119.339 44.2825 118.95 49.0694C118.894 49.734 118.907 50.3677 118.981 50.983C119.178 50.9645 119.382 50.9584 119.579 50.9584C123.307 50.9584 126.325 53.9672 126.325 57.6835V57.6958C126.325 58.2557 125.844 58.6741 125.319 58.6741C125.202 58.6741 125.084 58.6557 124.967 58.6126C121.758 57.4128 119.394 54.4963 118.981 50.9891C115.537 51.2906 112.834 54.1702 112.834 57.6897V57.7081C112.834 58.7172 113.112 59.7078 113.636 60.5692C114.149 61.4122 114.729 62.2059 115.377 62.9442C118.58 66.6114 123.295 68.931 128.553 68.931C138.193 68.931 146.006 61.1353 146.006 51.5306C146.006 50.7369 145.957 49.9493 145.852 49.1863C145.469 46.3499 144.395 43.7226 142.809 41.4891C142.544 41.1137 142.217 40.7753 141.846 40.4984C141.748 40.4246 141.643 40.3508 141.538 40.2769C139.871 39.1017 137.835 38.4126 135.65 38.4126L135.638 38.4003Z" fill="black"/>
<path d="M79.1992 86.916C79.1992 86.916 81.8036 102.071 86.5804 114.192C91.3571 126.313 101.343 132.374 101.343 132.374" stroke="black" stroke-width="2" stroke-miterlimit="10"/>
<path d="M52.2792 86.0484C52.2792 86.0484 58.1113 102.501 53.3346 114.622C48.5578 126.744 38.5723 132.804 38.5723 132.804" stroke="black" stroke-width="2" stroke-miterlimit="10"/>
</g>
<defs>
<clipPath id="clip0_27_54">
<rect width="146" height="141" fill="white"/>
</clipPath>
</defs>
</svg>
